<?xml version="1.0" encoding="UTF-8"?>
<svg id="a" data-name="branch-16px" xmlns="http://www.w3.org/2000/svg" viewBox="0 0 941.62 937.53">
  <rect width="941.62" height="937.53" style="fill: #348dfd;"/>
  <path id="b" data-name="Path 194" d="M785.71,70.98h-350c-41.42,0-75,33.58-75,75v150c0,13.81,11.19,25,25,25s25-11.19,25-25v-150c0-13.81,11.19-25,25-25h350c13.81,0,25,11.19,25,25v675h-100v-175c0-13.81-11.19-25-25-25h-150c-13.81,0-25,11.19-25,25v175h-75c-13.81,0-25,11.19-25,25s11.19,25,25,25h425V145.98c0-41.42-33.58-75-75-75ZM560.71,820.98v-150h100v150h-100ZM560.71,320.98h-100v-100h100v100ZM760.71,320.98h-100v-100h100v100ZM660.71,420.98h100v100h-100v-100ZM472.96,520.98h87.75v-100h-100v76.3c-8.72-16.07-19.58-30.87-32.3-44-78.88-78.65-206.52-78.65-285.4,0-78.65,78.88-78.65,206.52,0,285.4l125,125c4.7,4.69,11.07,7.31,17.7,7.3,6.63.01,13-2.61,17.7-7.3l125-125c57-57.15,74.52-142.75,44.55-217.7h0ZM285.71,810.63l-107.3-107.35c-59.2-59.28-59.2-155.32,0-214.6,28.43-28.49,67.05-44.47,107.3-44.4,40.25-.07,78.87,15.91,107.3,44.4,59.2,59.28,59.2,155.32,0,214.6l-107.3,107.35ZM360.71,595.98c0,41.42-33.58,75-75,75s-75-33.58-75-75,33.58-75,75-75,75,33.58,75,75Z" style="fill: #fff;"/>
</svg>