<?xml version="1.0" encoding="UTF-8"?>
<svg id="a" data-name="圖層 1" xmlns="http://www.w3.org/2000/svg" viewBox="0 0 35.04 35.04">
  <g>
    <circle cx="17.52" cy="17.52" r="17.27" style="fill: #fff;"/>
    <path d="M17.52,35.04C7.86,35.04,0,27.18,0,17.52S7.86,0,17.52,0s17.52,7.86,17.52,17.52-7.86,17.52-17.52,17.52ZM17.52.5C8.14.5.5,8.14.5,17.52s7.64,17.02,17.02,17.02,17.02-7.64,17.02-17.02S26.91.5,17.52.5Z" style="fill: #595757;"/>
  </g>
  <path d="M13.07,26.14c-.3,0-.6-.14-.8-.4-.33-.44-.25-1.07.19-1.4l9.21-6.96-10.31-6.64c-.46-.3-.6-.92-.3-1.38.3-.46.92-.6,1.38-.3l11.52,7.42c.28.18.45.48.46.8.01.33-.14.64-.4.83l-10.35,7.83c-.18.14-.39.2-.6.2Z" style="fill: #898989;"/>
</svg>