<?xml version="1.0" encoding="UTF-8"?>
<svg id="a" data-name="圖層 1" xmlns="http://www.w3.org/2000/svg" viewBox="0 0 51.09 60">
  <path d="M40.98,60H10.11c-1.66,0-3-1.34-3-3V3c0-1.66,1.34-3,3-3h30.86c1.66,0,3,1.34,3,3v54c0,1.66-1.34,3-3,3ZM8.41,58.71h34.27V1.29H8.41v57.42Z" style="fill: #fff;"/>
  <path d="M35.49,36.89H15.6c-1.66,0-3-1.34-3-3v-.72c0-1.66,1.34-3,3-3h19.89c1.66,0,3,1.34,3,3v.72c0,1.66-1.34,3-3,3ZM13.89,35.6h23.3v-4.14H13.89v4.14Z" style="fill: #fff;"/>
  <path d="M35.49,25.58H15.6c-1.66,0-3-1.34-3-3v-.72c0-1.66,1.34-3,3-3h19.89c1.66,0,3,1.34,3,3v.72c0,1.66-1.34,3-3,3ZM13.89,24.28h23.3v-4.14H13.89v4.14Z" style="fill: #fff;"/>
  <path d="M35.49,14.26H15.6c-1.66,0-3-1.34-3-3v-.72c0-1.66,1.34-3,3-3h19.89c1.66,0,3,1.34,3,3v.72c0,1.66-1.34,3-3,3ZM13.89,12.97h23.3v-4.14H13.89v4.14Z" style="fill: #fff;"/>
  <path d="M32.4,60h-13.71c-1.66,0-3-1.34-3-3v-10.94c0-1.66,1.34-3,3-3h13.71c1.66,0,3,1.34,3,3v10.94c0,1.66-1.34,3-3,3ZM16.98,58.71h17.12v-14.35h-17.12v14.35Z" style="fill: #fff;"/>
  <path d="M25.82,60c-.36,0-.65-.29-.65-.65v-15.64c0-.36.29-.65.65-.65s.65.29.65.65v15.64c0,.36-.29.65-.65.65Z" style="fill: #fff;"/>
  <path d="M50.44,60H.65c-.36,0-.65-.29-.65-.65s.29-.65.65-.65h49.8c.36,0,.65.29.65.65s-.29.65-.65.65Z" style="fill: #fff;"/>
</svg>