<?xml version="1.0" encoding="UTF-8"?>
<svg id="a" data-name="圖層 1" xmlns="http://www.w3.org/2000/svg" xmlns:xlink="http://www.w3.org/1999/xlink" viewBox="0 0 142.34 133.28">
  <defs>
    <clipPath id="b">
      <path d="M142.26,5.01v123.74c0,2.77-2.99,4.99-6.72,4.99H6.75c-3.73,0-6.75-2.22-6.75-4.99V5.01C0,2.24,3.02,0,6.75,0h128.79c3.73,0,6.72,2.24,6.72,5.01Z" style="fill: none;"/>
    </clipPath>
  </defs>
  <path d="M142.26,5v123.3c0,2.76-2.99,4.98-6.72,4.98H6.75c-3.73,0-6.75-2.22-6.75-4.98V5C0,2.23,3.02,0,6.75,0h128.79c3.73,0,6.72,2.23,6.72,5Z" style="fill: #e9f6fc;"/>
  <polygon points="84.16 124.67 58.03 124.67 58.03 87 84.16 74.44 84.16 124.67" style="fill: #1b2939;"/>
  <polygon points="101.95 138.87 64.2 138.87 64.2 70.26 101.95 52.11 101.95 138.87" style="fill: #fff;"/>
  <g style="clip-path: url(#b);">
    <polyline points="147.72 43.54 102.42 66.33 102.42 138.57" style="fill: none; stroke: #1b2939; stroke-linecap: round; stroke-miterlimit: 10; stroke-width: .5px;"/>
    <line x1="95.34" y1="75.91" x2="95.34" y2="136.12" style="fill: none; stroke: #1b2939; stroke-linecap: round; stroke-miterlimit: 10; stroke-width: .5px;"/>
  </g>
  <path d="M85.53,60.07v-31.92c0-.24-.26-.4-.48-.28l-32.76,17.7v67.14" style="fill: none; stroke: #1b2939; stroke-linecap: round; stroke-miterlimit: 10; stroke-width: .5px;"/>
  <line x1="85.53" y1="27.61" x2="123.71" y2="27.61" style="fill: none; stroke: #1b2939; stroke-linecap: round; stroke-miterlimit: 10; stroke-width: .5px;"/>
  <polygon points="119.5 134.79 112.35 134.79 112.35 64.76 119.5 62.05 119.5 134.79" style="fill: #fff;"/>
  <polygon points="132.82 133.31 125.67 133.31 125.67 59.61 132.82 56.9 132.82 133.31" style="fill: #fff;"/>
  <polygon points="137.39 19.21 98.18 19.21 98.18 27.38 125.14 27.38 137.39 19.21" style="fill: #1b2939;"/>
</svg>